<svg xmlns="http://www.w3.org/2000/svg" xmlns:xlink="http://www.w3.org/1999/xlink" width="500" zoomAndPan="magnify" viewBox="0 0 375 374.999991" height="500" preserveAspectRatio="xMidYMid meet" version="1.0"><defs><g/><clipPath id="id1"><path d="M 97.554688 171.121094 L 277.554688 171.121094 L 277.554688 204.121094 L 97.554688 204.121094 Z M 97.554688 171.121094 " clip-rule="nonzero"/></clipPath></defs><rect x="-37.5" width="450" fill="#ffffff" y="-37.499999" height="449.999989" fill-opacity="1"/><rect x="-37.5" width="450" fill="#ffffff" y="-37.499999" height="449.999989" fill-opacity="1"/><rect x="-37.5" width="450" fill="#ffffff" y="-37.499999" height="449.999989" fill-opacity="1"/><rect x="-37.5" width="450" fill="#ffffff" y="-37.499999" height="449.999989" fill-opacity="1"/><g fill="#000000" fill-opacity="1"><g transform="translate(81.100154, 246.998906)"><g><path d="M 57 -14.84375 C 57.019531 -11.675781 58.09375 -8.597656 60.21875 -5.609375 C 62.351562 -2.628906 64.914062 -0.882812 67.90625 -0.375 L 6.609375 -0.03125 C 9.597656 -0.582031 12.140625 -2.359375 14.234375 -5.359375 C 16.335938 -8.367188 17.378906 -11.457031 17.359375 -14.625 L 17.265625 -32.328125 L 17.015625 -77.25 L 16.9375 -90.734375 L 16.859375 -105.796875 L 16.84375 -108.703125 C 16.820312 -112.046875 15.742188 -115.164062 13.609375 -118.0625 C 11.484375 -120.957031 8.925781 -122.660156 5.9375 -123.171875 L 51.078125 -130.03125 L 51.859375 -130.046875 C 54.859375 -130.054688 56.367188 -128.5625 56.390625 -125.5625 L 56.578125 -92 L 56.65625 -77.46875 L 56.90625 -32.546875 Z M 126.5 -15.234375 C 126.519531 -12.066406 127.59375 -8.988281 129.71875 -6 C 131.851562 -3.019531 134.414062 -1.269531 137.40625 -0.75 L 121.03125 -0.671875 L 76.109375 -0.421875 C 79.097656 -0.960938 81.640625 -2.738281 83.734375 -5.75 C 85.835938 -8.757812 86.878906 -11.847656 86.859375 -15.015625 L 86.8125 -22.421875 L 86.421875 -92.96875 C 86.410156 -96.320312 87.101562 -99.144531 88.5 -101.4375 C 89.894531 -103.726562 91.46875 -105.800781 93.21875 -107.65625 C 94.96875 -109.519531 96.539062 -111.378906 97.9375 -113.234375 C 99.332031 -115.097656 100.023438 -117.257812 100.015625 -119.71875 C 99.992188 -122.71875 98.304688 -125.3125 94.953125 -127.5 C 91.597656 -129.6875 87.273438 -130.765625 81.984375 -130.734375 C 76.347656 -130.703125 71.332031 -129.96875 66.9375 -128.53125 C 62.550781 -127.101562 59.476562 -125.941406 57.71875 -125.046875 C 63.851562 -128.078125 70.835938 -130.359375 78.671875 -131.890625 C 86.515625 -133.429688 93.960938 -133.429688 101.015625 -131.890625 C 108.078125 -130.347656 114 -126.859375 118.78125 -121.421875 C 123.5625 -115.992188 125.984375 -107.816406 126.046875 -96.890625 L 126.453125 -22.640625 Z M 196 -15.609375 C 196.019531 -12.441406 197.09375 -9.363281 199.21875 -6.375 C 201.351562 -3.394531 203.914062 -1.648438 206.90625 -1.140625 L 190.53125 -1.046875 L 145.609375 -0.796875 C 148.597656 -1.347656 151.140625 -3.125 153.234375 -6.125 C 155.335938 -9.132812 156.378906 -12.222656 156.359375 -15.390625 L 156.3125 -22.796875 L 155.921875 -93.34375 C 155.910156 -96.695312 156.597656 -99.519531 157.984375 -101.8125 C 159.378906 -104.113281 160.953125 -106.191406 162.703125 -108.046875 C 164.460938 -109.910156 166.039062 -111.769531 167.4375 -113.625 C 168.832031 -115.488281 169.523438 -117.648438 169.515625 -120.109375 C 169.492188 -123.109375 167.757812 -125.695312 164.3125 -127.875 C 160.875 -130.0625 156.597656 -131.144531 151.484375 -131.125 C 145.847656 -131.09375 140.832031 -130.359375 136.4375 -128.921875 C 132.050781 -127.484375 128.972656 -126.316406 127.203125 -125.421875 C 133.347656 -128.453125 140.335938 -130.738281 148.171875 -132.28125 C 156.003906 -133.820312 163.445312 -133.816406 170.5 -132.265625 C 177.5625 -130.722656 183.484375 -127.234375 188.265625 -121.796875 C 193.054688 -116.367188 195.484375 -108.191406 195.546875 -97.265625 L 195.953125 -23.015625 Z M 196 -15.609375 "/></g></g></g><g clip-path="url(#id1)"><path fill="#ffffff" d="M 97.566406 171.121094 L 277.546875 171.121094 L 277.546875 204.121094 L 97.566406 204.121094 L 97.566406 171.121094 " fill-opacity="1" fill-rule="nonzero"/></g><g fill="#000000" fill-opacity="1"><g transform="translate(136.300946, 193.863254)"><g><path d="M 13.269531 0 L 14.609375 0 L 11.625 -13.703125 L 7.410156 -2.703125 L 3.195312 -13.703125 L 0.1875 0 L 1.550781 0 L 3.535156 -9.148438 L 7.410156 0.757812 L 11.265625 -9.148438 Z M 13.269531 0 "/></g></g></g><g fill="#000000" fill-opacity="1"><g transform="translate(158.822735, 193.863254)"><g><path d="M 3.496094 -4.726562 L 5.839844 -10.640625 L 8.164062 -4.726562 Z M 11.472656 0 L 5.839844 -13.742188 L 0.1875 0 L 1.625 0 L 3.003906 -3.496094 L 8.65625 -3.496094 L 10.035156 0 Z M 11.472656 0 "/></g></g></g><g fill="#000000" fill-opacity="1"><g transform="translate(178.208682, 193.863254)"><g><path d="M 2.742188 -9.46875 L 9.960938 0.792969 L 9.960938 -12.851562 L 8.636719 -12.851562 L 8.636719 -3.402344 L 1.417969 -13.664062 L 1.417969 0 L 2.742188 0 Z M 2.742188 -9.46875 "/></g></g></g><g fill="#000000" fill-opacity="1"><g transform="translate(197.311273, 193.863254)"><g><path d="M 2.742188 0 L 2.742188 -12.851562 L 1.417969 -12.851562 L 1.417969 0 Z M 2.742188 0 "/></g></g></g><g fill="#000000" fill-opacity="1"><g transform="translate(209.197643, 193.863254)"><g><path d="M 4.96875 -6.046875 C 6.632812 -5.652344 7.769531 -5.214844 8.371094 -4.726562 C 8.789062 -4.386719 8.996094 -3.949219 8.996094 -3.421875 C 8.996094 -2.890625 8.882812 -2.457031 8.65625 -2.15625 C 8.089844 -1.359375 7.070312 -0.964844 5.632812 -0.964844 C 3.628906 -0.964844 2.496094 -1.644531 2.25 -3.003906 L 0.699219 -3.003906 C 1.152344 -0.832031 2.796875 0.246094 5.632812 0.246094 C 6.898438 0.246094 7.957031 -0.0195312 8.808594 -0.585938 C 9.828125 -1.246094 10.355469 -2.230469 10.355469 -3.515625 C 10.355469 -4.574219 9.941406 -5.386719 9.109375 -5.953125 C 8.523438 -6.371094 7.578125 -6.746094 6.273438 -7.085938 C 4.953125 -7.425781 4.101562 -7.710938 3.703125 -7.917969 C 2.835938 -8.355469 2.398438 -8.957031 2.417969 -9.753906 C 2.417969 -10.167969 2.496094 -10.527344 2.683594 -10.792969 C 3.175781 -11.527344 4.042969 -11.90625 5.292969 -11.90625 C 7.050781 -11.90625 8.050781 -11.339844 8.316406 -10.242188 L 9.753906 -10.242188 C 9.28125 -12.097656 7.785156 -13.039062 5.292969 -13.039062 C 4.15625 -13.039062 3.15625 -12.738281 2.324219 -12.132812 C 1.472656 -11.527344 1.039062 -10.640625 1.039062 -9.429688 C 1.039062 -7.785156 2.363281 -6.652344 4.96875 -6.046875 Z M 4.96875 -6.046875 "/></g></g></g><g fill="#000000" fill-opacity="1"><g transform="translate(227.7713, 193.863254)"><g><path d="M 2.742188 0 L 2.742188 -5.746094 L 8.582031 -5.746094 L 8.582031 0 L 9.902344 0 L 9.902344 -12.851562 L 8.582031 -12.851562 L 8.582031 -7.070312 L 2.742188 -7.070312 L 2.742188 -12.851562 L 1.417969 -12.851562 L 1.417969 0 Z M 2.742188 0 "/></g></g></g></svg>